<?xml version="1.0" encoding="utf-8"?>
<!-- Generator: Adobe Illustrator 24.3.0, SVG Export Plug-In . SVG Version: 6.00 Build 0)  -->
<svg version="1.1" id="katman_1" xmlns="http://www.w3.org/2000/svg" xmlns:xlink="http://www.w3.org/1999/xlink" x="0px" y="0px"
	 viewBox="0 0 2500 2034" style="enable-background:new 0 0 2500 2034;" xml:space="preserve">
<path d="M2354.7,1119.8c-13-91.8-44.8-178.8-94.5-258.6c-43.3-69.7-98.9-131.6-165.2-184.3l0.2-0.2l-696.7-535.1
	c-0.5-0.4-1-0.9-1.6-1.2c-23.2-17.7-54.5-27.5-88.3-27.5c-33.8,0-66.4,9.8-91.7,27.6c-27.2,19-42.8,44.3-43.9,71.1
	c-1,25.1,11,49.2,33.8,68c44.8,35.4,89.6,71.5,134.4,107.7c43.5,35.1,88.3,71.3,132.9,106.6l-853.3-0.6
	c-97.6,0-164,45.8-177.7,122.5c-6,33.6,4.6,70.6,28.3,98.9c25.1,30,61.6,46.5,102.8,46.5l65.1,0c89.9,0,180.1-0.2,270.3-0.4l86-0.2
	l-774.5,573l-3.1,2.2c-43.3,33.2-71.6,79.6-77.7,127.5c-4.6,36.3,3.8,69.4,24.5,95.9c24.6,31.6,63,48.9,108.2,48.9
	c44.4,0,89.7-16.8,127.6-47.4l418.2-342.3c-1.8,16.7-4,41.2-3.7,59c0.5,28.2,9.5,84.7,23.8,130.6c29.6,94.3,79.4,180.6,148.1,256.4
	c71.5,78.9,158.6,141.4,258.8,185.8c105.9,46.9,219.8,70.6,338.5,70.6h1.1c119.1-0.3,233.3-24.4,339.6-71.8
	c100.4-44.9,187.4-107.7,258.6-186.6c68.6-76.2,118.4-162.6,147.9-256.9c14.6-46.7,24-94.8,27.9-143.5
	C2362.9,1215.2,2361.3,1167.2,2354.7,1119.8L2354.7,1119.8z M1592.8,1571.9c-261.6,0-473.7-189.7-473.7-423.8
	c0-234,212.1-423.8,473.7-423.8c261.6,0,473.6,189.7,473.6,423.8C2066.4,1382.2,1854.3,1571.9,1592.8,1571.9z M1865.9,1110.9
	c3.9,69.9-24,134.7-73,182.7c-49.8,48.9-121,79.6-200.5,79.6c-79.5,0-150.6-30.7-200.5-79.6c-49-48-76.8-112.9-73-182.7
	c3.8-67.9,36.9-127.8,86.7-170.2c49-41.7,114.9-67.1,186.8-67.1c71.9,0,137.7,25.5,186.8,67.1
	C1829,983.2,1862.1,1043.1,1865.9,1110.9L1865.9,1110.9z"/>
</svg>
