<?xml version="1.0" encoding="UTF-8"?>
<svg id="katman_1" xmlns="http://www.w3.org/2000/svg" version="1.1" viewBox="0 0 841.9 595.3">
  <!-- Generator: Adobe Illustrator 29.3.1, SVG Export Plug-In . SVG Version: 2.1.0 Build 151)  -->
  <defs>
    <style>
      .st0 {
        fill: #1d1d1b;
      }
    </style>
  </defs>
  <path class="st0" d="M696,171.6v-85.7l-103,54.1v-3.2c0-34.1-24.5-54.8-60-54.8H206.3c-37.4,0-59.9,20.6-59.9,54.8v86.5l144.3,74.6-144.3,75.4v86.3c0,33.5,22.7,54.1,59.9,54.1h326.6c35.4,0,59.9-20.6,59.9-54.1v-4.5l103.1,54.8v-87l-239.7-125,239.7-126.3ZM373.2,340.5l177.2,92.8H195.4s177.8-92.8,177.8-92.8ZM549.1,162.6l-175.9,92.2-177.8-92.2s353.7,0,353.7,0Z"/>
</svg>