<?xml version="1.0" encoding="utf-8"?>
<!-- Generator: Adobe Illustrator 25.0.1, SVG Export Plug-In . SVG Version: 6.00 Build 0)  -->
<svg version="1.0" id="katman_1" xmlns="http://www.w3.org/2000/svg" xmlns:xlink="http://www.w3.org/1999/xlink" x="0px" y="0px"
	 viewBox="0 0 713 500" style="enable-background:new 0 0 713 500;" xml:space="preserve">
<style type="text/css">
	.st0{fill-rule:evenodd;clip-rule:evenodd;fill:#4D4C4C;}
	.st1{fill-rule:evenodd;clip-rule:evenodd;fill:#4C9622;}
	.st2{fill:#4D4C4C;}
</style>
<path class="st0" d="M600.5,289.2h-2c-8.2-27.1-12.9-50.5-14-69.2c-1.5-27,4-44.3,12.8-49.1c0.8-0.4,1.7-0.8,3.2-0.8
	c1.5,0,2.4,0.4,3.2,0.8c8.8,4.8,14.4,22.1,12.8,49.1c-1.1,18.7-5.8,42.1-14,69.2H600.5z"/>
<path class="st0" d="M593.1,170c0,0-24,9.1-22.3,44.1c1.7,35,25.6,75.1,25.6,75.1c-14.7-13.1-36.5-53.7-36.9-77.7
	c0.3-25.3,17-35.5,21.7-37.7C585.8,171.6,590.8,170.1,593.1,170"/>
<path class="st0" d="M572.1,176.1c0,0-25.8,10.6-20.7,41.3c5.1,30.7,32.3,63.5,40.4,70.4c2.9,2.7-33.4-37.8-36.9-73.3
	C553.1,201.2,557.1,186.3,572.1,176.1"/>
<path class="st0" d="M629.6,176.1c0,0,25.8,10.6,20.7,41.3c-5.1,30.7-32.3,63.5-40.4,70.4c-2.9,2.7,33.4-37.8,36.9-73.3
	C648.5,201.2,644.6,186.3,629.6,176.1"/>
<path class="st0" d="M608.5,170c0,0,24,9.1,22.3,44.1s-25.6,75.1-25.6,75.1c14.7-13.1,36.5-53.7,36.9-77.7
	c-0.3-25.3-17-35.5-21.7-37.7C615.7,171.6,610.7,170.1,608.5,170"/>
<polygon class="st1" points="593,308.6 608,308.6 610.8,296.1 590.2,296.1 "/>
<path class="st2" d="M445.9,225.7c0.7,0,1.4,0.1,2,0.4c0.6,0.3,1.2,0.6,1.7,1.1c0.5,0.5,0.8,1,1.1,1.6c0.3,0.6,0.4,1.3,0.4,2
	c0,0.7-0.1,1.4-0.4,2c-0.3,0.6-0.6,1.2-1.1,1.6c-0.5,0.5-1.1,0.9-1.7,1.1c-0.6,0.3-1.3,0.4-1.9,0.4c-0.7,0-1.3-0.1-1.9-0.4
	c-0.6-0.3-1.2-0.6-1.7-1.1c-0.5-0.5-0.9-1-1.1-1.7c-0.3-0.6-0.4-1.3-0.4-1.9c0-0.7,0.1-1.3,0.4-2c0.3-0.6,0.6-1.2,1.1-1.7
	c0.5-0.5,1-0.8,1.6-1.1C444.5,225.9,445.2,225.7,445.9,225.7 M450.4,230.9c0-0.6-0.1-1.2-0.3-1.8c-0.2-0.6-0.5-1-1-1.5
	c-0.4-0.4-0.9-0.8-1.5-1c-0.5-0.2-1.1-0.3-1.7-0.3c-0.6,0-1.2,0.1-1.7,0.3c-0.5,0.2-1,0.5-1.4,1c-0.4,0.4-0.8,0.9-1,1.5
	c-0.2,0.6-0.3,1.1-0.3,1.7c0,0.6,0.1,1.2,0.3,1.7c0.2,0.5,0.6,1,1,1.5c0.4,0.4,0.9,0.8,1.4,1c0.5,0.2,1.1,0.3,1.7,0.3
	c0.6,0,1.2-0.1,1.7-0.3c0.5-0.2,1-0.6,1.5-1c0.4-0.4,0.7-0.9,1-1.4C450.3,232.1,450.4,231.5,450.4,230.9z M446,227.8
	c0.8,0,1.4,0.1,1.8,0.4c0.4,0.3,0.6,0.7,0.6,1.2c0,0.4-0.1,0.8-0.4,1c-0.2,0.3-0.6,0.5-1,0.5l1.3,2.7h-1.1l-1.2-2.5h-1.2v2.5h-1
	v-5.9H446z M445.8,228.5h-1v2h1c0.6,0,1-0.1,1.2-0.2c0.2-0.2,0.4-0.4,0.4-0.8c0-0.4-0.1-0.6-0.4-0.8S446.4,228.5,445.8,228.5z"/>
<path class="st2" d="M431.7,309.2c-0.1-2.3-0.6-4.1-1.7-5.4c-1-1.3-2.4-1.9-4.3-1.9c-1.9,0-3.4,0.6-4.7,1.9c-1.2,1.3-2,3.1-2.3,5.4
	L431.7,309.2L431.7,309.2z M418.8,310.9c0,2.7,0.6,4.9,1.9,6.4c1.3,1.5,3,2.3,5.2,2.3c2.2,0,4.4-0.8,6.6-2.5v1.9
	c-2.1,1.5-4.4,2.2-6.9,2.2c-2.6,0-4.7-0.9-6.2-2.8c-1.6-1.8-2.4-4.5-2.4-7.8c0-2.9,0.8-5.4,2.5-7.4c1.7-2,3.8-3,6.5-3
	c2.5,0,4.4,0.9,5.7,2.6c1.3,1.7,2,4.1,2,7.1v0.8L418.8,310.9L418.8,310.9z M415,320.5c-0.9,0.4-1.8,0.7-2.6,0.7
	c-3,0-4.4-1.8-4.4-5.3v-13.4h-3.6v-1.6h3.6v-5.2c0.3-0.1,0.6-0.2,0.9-0.3c0.3-0.1,0.6-0.2,0.9-0.3v5.8h5.3v1.6h-5.3v13.2
	c0,1.4,0.2,2.4,0.7,3c0.4,0.6,1.2,0.9,2.2,0.9c0.7,0,1.5-0.2,2.4-0.7L415,320.5L415,320.5z M399.5,320.8v-20h1.8v20H399.5z
	 M400.4,295.8c-0.4,0-0.7-0.1-1-0.4c-0.3-0.3-0.4-0.7-0.4-1.1c0-0.4,0.2-0.8,0.5-1c0.3-0.3,0.6-0.4,1-0.4c0.4,0,0.8,0.1,1.1,0.4
	c0.3,0.3,0.5,0.6,0.5,1.1c0,0.4-0.1,0.8-0.4,1.1C401.1,295.6,400.8,295.8,400.4,295.8z M391.9,320.8v-3.6h-0.1
	c-1.4,2.7-3.5,4.1-6.4,4.1c-4.7,0-7.1-3-7.1-8.9v-11.6h1.8v11.1c0,2.7,0.4,4.7,1.3,5.9c0.9,1.2,2.3,1.8,4.2,1.8
	c1.9,0,3.4-0.7,4.5-2.1c1.2-1.4,1.7-3.2,1.7-5.5v-11.3h1.8v20L391.9,320.8L391.9,320.8z M358.9,319.8v-2.2c2,1.3,4,1.9,6.1,1.9
	c2.2,0,3.8-0.5,5-1.4c1.1-0.9,1.7-2.2,1.7-3.8c0-1.4-0.4-2.6-1.1-3.4c-0.8-0.9-2.4-2-4.9-3.5c-2.8-1.7-4.6-3-5.4-4.1
	c-0.8-1.1-1.1-2.4-1.1-3.9c0-2,0.8-3.7,2.3-5c1.5-1.4,3.6-2.1,6.1-2.1c1.7,0,3.3,0.3,5,0.8v2c-1.6-0.7-3.4-1.1-5.3-1.1
	c-1.9,0-3.4,0.5-4.5,1.4c-1.1,1-1.7,2.2-1.7,3.7c0,1.4,0.4,2.6,1.1,3.4c0.8,0.8,2.4,2,4.9,3.5c2.6,1.5,4.4,2.8,5.2,3.9
	c0.9,1.2,1.3,2.5,1.3,4c0,2.2-0.7,3.9-2.2,5.3c-1.5,1.4-3.6,2-6.3,2c-1,0-2.1-0.1-3.3-0.4C360.6,320.5,359.6,320.2,358.9,319.8z
	 M334.9,319.9v-2.2c0.7,0.6,1.5,1,2.5,1.4c1,0.3,1.8,0.5,2.5,0.5c3.1,0,4.7-1.3,4.7-3.8c0-0.9-0.3-1.6-1-2.3
	c-0.7-0.6-1.8-1.3-3.4-1.9c-1.9-0.8-3.3-1.7-4-2.6c-0.8-0.9-1.2-2-1.2-3.2c0-1.6,0.6-2.9,1.9-3.9c1.2-1,2.8-1.5,4.6-1.5
	c1.7,0,3.2,0.4,4.4,1.1v2c-1.5-1-3-1.4-4.6-1.4c-1.3,0-2.4,0.3-3.2,1c-0.8,0.7-1.2,1.6-1.2,2.7c0,1,0.3,1.7,0.8,2.3
	c0.5,0.6,1.6,1.3,3.4,2c2.1,0.9,3.5,1.8,4.3,2.6c0.8,0.8,1.2,1.9,1.2,3.2c0,1.6-0.6,2.9-1.8,3.9s-2.8,1.6-4.9,1.6
	C337.8,321.3,336.2,320.8,334.9,319.9z M331.7,319.9c-1.5,0.9-3.3,1.4-5.3,1.4c-2.7,0-4.9-0.9-6.6-2.8c-1.7-1.9-2.5-4.3-2.5-7.3
	c0-3.2,0.9-5.8,2.8-7.8c1.9-2,4.3-3,7.2-3c1.5,0,3,0.3,4.4,0.9v2c-1.4-0.9-3-1.3-4.7-1.3c-2.3,0-4.2,0.8-5.7,2.5
	c-1.5,1.7-2.2,3.9-2.2,6.5c0,2.6,0.7,4.7,2,6.2c1.3,1.6,3.1,2.4,5.3,2.4c2,0,3.8-0.5,5.2-1.6L331.7,319.9L331.7,319.9z M311.2,320.8
	v-20h1.8v20H311.2z M312.1,295.8c-0.4,0-0.7-0.1-1-0.4c-0.3-0.3-0.4-0.7-0.4-1.1c0-0.4,0.2-0.8,0.5-1c0.3-0.3,0.6-0.4,1-0.4
	c0.4,0,0.8,0.1,1.1,0.4c0.3,0.3,0.5,0.6,0.5,1.1c0,0.4-0.1,0.8-0.4,1.1C312.8,295.6,312.5,295.8,312.1,295.8z M304,320.8v-12
	c0-2.4-0.4-4.1-1.3-5.2c-0.9-1.1-2.2-1.6-4-1.6c-1.7,0-3.2,0.7-4.5,2c-1.3,1.3-2,3.3-2,5.8v11.1h-1.8v-29.6h1.8v13.2h0.1
	c1.6-2.7,3.9-4.1,6.9-4.1c2.2,0,3.8,0.7,4.9,2.1c1.1,1.4,1.7,3.4,1.7,6v12.4L304,320.8L304,320.8z M270.4,309.8v2.5
	c0,2,0.6,3.7,1.9,5.2c1.3,1.4,2.9,2.2,5,2.2c2,0,3.7-0.9,5-2.6c1.3-1.7,1.9-4,1.9-6.9c0-2.5-0.6-4.5-1.8-6c-1.2-1.5-2.7-2.2-4.7-2.2
	c-2.3,0-4.1,0.8-5.4,2.3C271,305.9,270.4,307.7,270.4,309.8z M270.5,317.2L270.5,317.2l-0.1,12.8h-1.8v-29.2h1.8v4.1h0.1
	c0.7-1.5,1.7-2.6,3.1-3.4c1.3-0.8,2.8-1.2,4.4-1.2c2.5,0,4.5,0.9,5.9,2.6c1.4,1.7,2.1,4.1,2.1,7.1c0,3.3-0.8,6-2.5,8.1
	s-3.8,3.1-6.5,3.1C274.1,321.3,271.9,319.9,270.5,317.2z M255.9,310.8c-2.1,0.3-3.6,0.8-4.4,1.5c-0.8,0.7-1.3,1.8-1.3,3.3
	c0,1.2,0.4,2.2,1.2,2.9c0.8,0.8,1.9,1.2,3.3,1.2c1.9,0,3.5-0.7,4.8-2.1c1.3-1.4,1.9-3.3,1.9-5.5v-2L255.9,310.8z M261.4,320.8v-4
	h-0.1c-0.6,1.4-1.6,2.5-2.8,3.3c-1.2,0.8-2.6,1.2-4.1,1.2c-1.9,0-3.4-0.5-4.5-1.6c-1.1-1.1-1.7-2.4-1.7-4c0-3.5,2.3-5.6,6.9-6.3
	l6.1-0.9c0-4.3-1.6-6.4-4.8-6.4c-2.2,0-4.3,0.9-6.4,2.7v-2.2c0.7-0.6,1.7-1.1,3-1.5c1.3-0.4,2.5-0.6,3.6-0.6c2.1,0,3.7,0.6,4.8,1.9
	c1.1,1.3,1.7,3.1,1.7,5.6v13L261.4,320.8L261.4,320.8z M246.2,302.7c-0.6-0.4-1.3-0.6-2.1-0.6c-1.6,0-2.9,0.8-4,2.4
	c-1.1,1.6-1.6,3.9-1.6,6.9v9.4h-1.8v-20h1.8v4.4h0.1c0.5-1.5,1.2-2.7,2.2-3.6c1-0.8,2.1-1.3,3.4-1.3c0.7,0,1.4,0.1,2,0.4
	L246.2,302.7L246.2,302.7z M231.3,318.8c-2.9,1.6-5.9,2.4-8.9,2.4c-3.8,0-6.9-1.3-9.3-3.9c-2.4-2.6-3.5-6-3.5-10.2
	c0-4.2,1.3-7.8,3.8-10.6c2.5-2.8,5.9-4.3,10.2-4.3c2.5,0,4.8,0.5,7.2,1.5v2.1c-2.5-1.2-5-1.8-7.4-1.8c-3.5,0-6.4,1.2-8.5,3.6
	c-2.1,2.4-3.2,5.5-3.2,9.2c0,3.9,1,7,3,9.2c2,2.2,4.7,3.4,8.1,3.4c2.5,0,4.7-0.5,6.6-1.6v-9.2h-6.6v-1.8h8.5L231.3,318.8
	L231.3,318.8z"/>
<path class="st1" d="M558,284.5c-0.6,1-1.3,2.3-2.2,3.9c-0.8,1.5-1.7,3.3-2.7,5.2c-0.9,1.9-1.9,4-2.9,6.2c-1,2.2-1.9,4.5-2.7,6.9
	c-0.9,2.4-1.6,4.7-2.2,7.2c-0.6,2.4-1.1,4.8-1.4,7.1h-4.8c0.3-2.3,0.8-4.7,1.5-7.1c0.7-2.4,1.5-4.8,2.3-7.1c0.9-2.3,1.8-4.6,2.7-6.7
	c1-2.2,1.9-4.1,2.8-6c0.9-1.8,1.7-3.4,2.5-4.8c0.8-1.4,1.4-2.5,1.8-3.2h-19.6v-4H558V284.5z M521.9,321h-4.5v-33.7
	c-0.3,0.3-0.9,0.7-1.5,1.2c-0.7,0.4-1.4,0.9-2.2,1.3c-0.8,0.4-1.7,0.8-2.6,1.2c-0.9,0.4-1.8,0.7-2.7,0.9v-4.5c1-0.3,2-0.6,3.1-1.1
	c1.1-0.5,2.2-1,3.2-1.6c1.1-0.6,2.1-1.2,3-1.8c0.9-0.6,1.8-1.2,2.5-1.8h1.7L521.9,321L521.9,321z M497,301.7
	c0-11.1-2.6-16.6-7.9-16.6c-5.6,0-8.4,5.6-8.4,16.9c0,10.5,2.7,15.8,8.2,15.8C494.3,317.8,497,312.5,497,301.7z M501.5,301.3
	c0,3.3-0.3,6.2-0.9,8.7c-0.6,2.5-1.4,4.7-2.6,6.4c-1.1,1.7-2.5,3-4.1,3.9c-1.6,0.9-3.5,1.3-5.5,1.3c-2,0-3.7-0.4-5.2-1.3
	c-1.5-0.9-2.8-2.1-3.9-3.8c-1.1-1.6-1.9-3.7-2.4-6.1c-0.5-2.4-0.8-5.2-0.8-8.3c0-3.4,0.3-6.4,0.9-9c0.6-2.6,1.4-4.8,2.5-6.6
	c1.1-1.8,2.5-3.1,4.1-4c1.6-0.9,3.5-1.3,5.6-1.3C497.5,281.3,501.5,288,501.5,301.3z M464.8,292.2c0-1.2-0.2-2.2-0.6-3.1
	c-0.4-0.9-0.9-1.6-1.5-2.2c-0.6-0.6-1.4-1-2.3-1.3c-0.9-0.3-1.8-0.4-2.8-0.4c-0.9,0-1.7,0.1-2.6,0.4c-0.8,0.2-1.6,0.6-2.4,1
	c-0.8,0.4-1.6,0.9-2.3,1.5c-0.7,0.6-1.4,1.2-2.1,1.9v-4.8c1.3-1.2,2.7-2.1,4.2-2.8c1.5-0.6,3.4-1,5.7-1c1.6,0,3.1,0.2,4.4,0.7
	c1.4,0.5,2.5,1.1,3.5,2c1,0.9,1.8,2,2.4,3.3c0.6,1.3,0.9,2.8,0.9,4.5c0,1.5-0.2,2.9-0.5,4.2c-0.4,1.2-0.9,2.4-1.6,3.5
	c-0.7,1.1-1.6,2.2-2.7,3.2c-1.1,1-2.4,2.1-3.8,3.1c-1.8,1.3-3.3,2.4-4.5,3.4c-1.2,0.9-2.1,1.8-2.8,2.6c-0.7,0.8-1.2,1.6-1.5,2.4
	c-0.3,0.8-0.4,1.7-0.4,2.8h19.4v4h-24.1V319c0-1.7,0.2-3.1,0.5-4.4c0.4-1.3,1-2.5,1.8-3.6c0.8-1.1,1.9-2.3,3.3-3.4
	c1.4-1.1,3-2.4,5-3.9c1.4-1,2.6-2,3.5-2.9c1-0.9,1.7-1.9,2.3-2.8c0.6-0.9,1-1.9,1.2-2.8C464.6,294.3,464.8,293.3,464.8,292.2z"/>
<path class="st2" d="M349.7,226.1h-6.9l-21.7,56.5h7.4l5.6-15.8h24l6,15.8h7.3L349.7,226.1z M336.4,260.8l8.8-24.1
	c0.3-0.9,0.6-2.2,0.9-3.8h0.2c0.3,1.7,0.6,3,0.9,3.8l8.9,24.1H336.4z M241.3,226.1h-15.6v56.5h15c9.3,0,16.7-2.6,22.2-7.9
	c5.5-5.3,8.3-12.3,8.3-21C271.1,235.2,261.1,226.1,241.3,226.1z M258,270.6c-4.1,4-9.9,6-17.3,6h-8.4V232h8.8
	c15.4,0,23.1,7.2,23.1,21.7C264.2,261,262.1,266.6,258,270.6z"/>
<path class="st2" d="M436,226.1l-15.9,56.5h-7.8l-11.6-41.3c-0.5-1.8-0.8-3.7-0.9-5.8h-0.2c-0.1,1.9-0.5,3.8-1,5.7l-11.7,41.3h-7.7
	l-16.5-56.5h7.3l12,43.3c0.5,1.8,0.8,3.7,0.9,5.7h0.2c0.1-1.4,0.5-3.3,1.2-5.7l12.5-43.3h6.3l12,43.6c0.4,1.5,0.7,3.3,0.9,5.3h0.2
	c0.1-1.4,0.5-3.2,1.1-5.4l11.5-43.5L436,226.1L436,226.1z M285.9,232v20.5h9c1.7,0,3.2-0.3,4.6-0.8c1.4-0.5,2.6-1.2,3.6-2.2
	c1-0.9,1.8-2.1,2.4-3.4c0.6-1.3,0.9-2.9,0.9-4.5c0-3-1-5.4-2.9-7.1c-1.9-1.7-4.8-2.5-8.5-2.5L285.9,232L285.9,232z M319.8,282.5
	h-7.9l-9.5-15.8c-0.9-1.5-1.7-2.7-2.5-3.8c-0.8-1-1.7-1.9-2.5-2.5c-0.9-0.7-1.8-1.1-2.8-1.4c-1-0.3-2.1-0.5-3.3-0.5h-5.4v24h-6.6
	v-56.5h16.9c2.5,0,4.7,0.3,6.8,0.9c2.1,0.6,3.9,1.5,5.4,2.8c1.5,1.3,2.7,2.8,3.6,4.7c0.9,1.9,1.3,4.1,1.3,6.6c0,2-0.3,3.8-0.9,5.4
	c-0.6,1.6-1.4,3.1-2.5,4.4c-1.1,1.3-2.4,2.4-3.9,3.3c-1.5,0.9-3.3,1.6-5.2,2.1v0.1c1,0.4,1.8,0.9,2.5,1.4c0.7,0.6,1.4,1.2,2,1.9
	c0.6,0.7,1.3,1.6,1.9,2.5c0.6,0.9,1.3,2,2.1,3.2L319.8,282.5z M212.9,282.5v-57h3.6v57L212.9,282.5L212.9,282.5z M202.1,259.2
	c-0.2-4.6-1.3-8.3-3.3-10.8s-4.9-3.9-8.6-3.9c-3.8,0-6.9,1.3-9.4,3.8c-2.5,2.5-4,6.2-4.6,10.9H202.1z M176,262.5
	c0,5.5,1.3,9.9,3.8,13c2.6,3.1,6.1,4.7,10.5,4.7c4.5,0,8.9-1.7,13.2-5v3.9c-4.2,3-8.8,4.4-14,4.4c-5.2,0-9.4-1.9-12.6-5.6
	c-3.2-3.7-4.8-9-4.8-15.8c0-5.9,1.7-10.8,5-14.9c3.3-4,7.7-6,13.1-6c5,0,8.9,1.8,11.5,5.3c2.7,3.5,4,8.3,4,14.4v1.6H176L176,262.5z
	 M170.8,246c-1.2-0.9-2.6-1.3-4.3-1.3c-3.2,0-5.8,1.6-8,4.9c-2.2,3.3-3.2,7.9-3.2,14v18.9h-3.5v-40.3h3.5v8.9h0.2
	c0.9-3.1,2.4-5.5,4.4-7.2c2-1.7,4.3-2.6,6.9-2.6c1.5,0,2.8,0.2,4,0.7L170.8,246L170.8,246z M126.2,244.5c-4.7,0-8.5,1.6-11.3,4.8
	c-2.8,3.2-4.2,7.6-4.2,13.3c0,5.3,1.4,9.5,4.1,12.7c2.8,3.2,6.5,4.8,11.3,4.8c4.9,0,8.6-1.6,11.2-4.7c2.6-3.1,3.9-7.5,3.9-13.1
	c0-5.7-1.3-10.1-3.9-13.2C134.7,246.1,131,244.5,126.2,244.5z M125.9,283.5c-5.9,0-10.5-1.9-14-5.8c-3.4-3.9-5.1-8.9-5.1-15.1
	c0-6.7,1.8-11.9,5.4-15.7c3.6-3.8,8.3-5.7,14.2-5.7c5.7,0,10.3,1.9,13.6,5.6c3.3,3.7,5,8.9,5,15.6c0,6.3-1.7,11.3-5.1,15.2
	C136.5,281.6,131.8,283.5,125.9,283.5z M102.5,280.7c-4.6,1.9-9.3,2.8-14.3,2.8c-7.7,0-14-2.6-18.9-7.8c-4.9-5.2-7.3-11.9-7.3-20.3
	c0-9.2,2.6-16.5,7.9-22c5.3-5.5,12-8.3,20.1-8.3c4.3,0,8.5,0.7,12.4,2.1v4.1c-4-1.8-8.1-2.7-12.5-2.7c-7.1,0-12.9,2.4-17.3,7.2
	c-4.4,4.8-6.7,11.2-6.7,19.2c0,7.7,2.1,13.8,6.4,18.2c4.2,4.4,9.6,6.7,16.1,6.7c5.2,0,9.9-1,14-3L102.5,280.7L102.5,280.7z"/>
</svg>
