<?xml version="1.0" encoding="UTF-8"?>
<!DOCTYPE svg PUBLIC "-//W3C//DTD SVG 1.1//EN" "http://www.w3.org/Graphics/SVG/1.1/DTD/svg11.dtd">
<!-- Creator: CorelDRAW -->
<svg xmlns="http://www.w3.org/2000/svg" xml:space="preserve" width="178.253mm" height="173.797mm" version="1.1" style="shape-rendering:geometricPrecision; text-rendering:geometricPrecision; image-rendering:optimizeQuality; fill-rule:evenodd; clip-rule:evenodd"
viewBox="0 0 17811.07 17365.81"
 xmlns:xlink="http://www.w3.org/1999/xlink"
 xmlns:xodm="http://www.corel.com/coreldraw/odm/2003">
 <defs>
  <style type="text/css">
   <![CDATA[
    .fil0 {fill:#F58640}
   ]]>
  </style>
    <clipPath id="id0">
     <path d="M742.12 15430.86l16326.82 0 0 -14688.74 -16326.82 0 0 14688.74z"/>
    </clipPath>
    <clipPath id="id1">
     <path d="M17068.94 15380.1l-16326.82 0 0 1243.56 16326.82 0 0 -1243.56z"/>
    </clipPath>
 </defs>
 <g id="圖層_x0020_1">
  <metadata id="CorelCorpID_0Corel-Layer"/>
  <g id="_1820467219616">
   <g style="clip-path:url(#id0)">
    <image transform="matrix(1 -0 -0 -1 710.631 15431.9)" x="0" y="0" width="16380.05" height="14722.75" xlink:href="Adobe Illustrator CC_Images\Adobe Illustrator CC_ImgID1.png"/>
   </g>
   <g style="clip-path:url(#id1)">
    <image transform="matrix(1 -0 -0 -1 710.631 16650.1)" x="0" y="0" width="16380.05" height="1271.52" xlink:href="Adobe Illustrator CC_Images\Adobe Illustrator CC_ImgID2.png"/>
   </g>
   <path class="fil0" d="M6181.93 9833.22l-586.31 2226.36c-14.84,59.36 -37.08,74.21 -111.28,74.21l-1090.94 0c-74.2,0 -89.08,-22.28 -74.2,-111.32l2107.64 -7376.78c37.08,-133.56 59.35,-252.31 74.2,-615.91 0,-51.97 22.24,-74.24 59.35,-74.24l1558.46 0c51.96,0 74.19,14.88 89.07,74.24l2359.96 8007.53c14.84,59.32 0,96.48 -59.36,96.48l-1231.97 0c-59.35,0 -96.47,-14.84 -111.28,-66.77l-608.54 -2233.8 -2374.8 0zm2063.12 -1202.26c-207.79,-823.78 -697.59,-2619.7 -883.14,-3488.01l-14.84 -0.01c-155.88,868.3 -549.16,2337.69 -860.83,3488.03l1758.81 -0.01zm3339.55 -4126.24c0,-474.96 333.95,-756.98 757.01,-756.98 452.69,-0.01 756.95,304.28 756.95,756.98 0,489.79 -319.11,756.94 -771.83,756.94 -430.43,0.03 -742.15,-267.16 -742.14,-756.94zm81.64 1684.64c0,-59.39 22.23,-89.07 89.07,-89.07l1165.14 0c59.33,0 89.04,22.24 89.04,89.08l0 5855.37c0,59.35 -14.84,89.04 -89.04,89.04l-1150.3 0c-74.2,0 -96.48,-37.08 -96.48,-96.44l0.01 -5847.98 -7.43 0zm-11666.24 11176.44l17811.07 0 0 -17365.81 -17811.07 0 0 17365.81zm742.12 -16623.69l16326.82 0 0 15881.55 -16326.82 0 0 -15881.55z"/>
  </g>
 </g>
</svg>
